<svg width="872" height="1148" viewBox="0 0 872 1148" fill="none" xmlns="http://www.w3.org/2000/svg">
<g opacity="0.2">
<g clip-path="url(#clip0_27_454)">
<path d="M237.824 506.908C237.823 506.509 237.717 506.118 237.516 505.773C237.316 505.428 237.028 505.141 236.682 504.942L213.366 491.528L212.224 493.5L213.366 491.528L190.028 478.142L166.707 464.723L165.56 466.694L166.702 464.723L143.38 451.325L120.054 437.906C119.706 437.708 119.312 437.604 118.912 437.604C118.511 437.604 118.118 437.708 117.77 437.906L1.14173 504.942C0.90201 505.08 0.690873 505.263 0.519466 505.48C0.318381 505.72 0.169179 505.999 0.081178 506.299C0.0273283 506.492 1.11236e-05 506.691 0 506.892V640.962C3.75757e-05 641.362 0.105536 641.754 0.30592 642.1C0.506304 642.446 0.794542 642.734 1.14173 642.934L24.4685 656.353L25.6102 654.381L24.4685 656.353L47.7952 669.75L71.1166 683.169L72.2637 681.197L71.122 683.169L94.4433 696.566L117.77 709.985C118.118 710.183 118.511 710.286 118.912 710.286C119.312 710.286 119.706 710.183 120.054 709.985C120.054 709.985 120.054 709.985 120.097 709.953L236.676 642.939C237.023 642.74 237.311 642.453 237.512 642.108C237.712 641.763 237.818 641.372 237.818 640.973V506.951C237.818 506.951 237.824 506.924 237.824 506.908ZM50.0624 638.996L48.9207 640.962L50.0624 638.996L30.1717 627.565L48.9261 616.791L71.1111 629.553L72.2583 627.581L71.122 629.515L94.4433 642.912L117.77 656.331C118.118 656.529 118.511 656.632 118.912 656.632C119.312 656.632 119.706 656.529 120.054 656.331L160.896 632.849L188.892 616.759L207.641 627.532L187.74 639.001L164.418 652.409L141.097 665.812L118.912 678.568L96.7268 665.807L95.585 667.762L96.7268 665.791L73.4054 652.399L50.0624 638.996ZM141.097 482.063L142.244 480.097L141.097 482.063L164.418 495.461L187.745 508.879L188.887 506.908L187.745 508.879L209.93 521.62V623.622L191.175 612.848V533.724C191.175 533.323 191.069 532.929 190.867 532.582C190.721 532.356 190.538 532.155 190.326 531.99C190.272 531.943 190.216 531.9 190.158 531.86C190.11 531.828 190.072 531.785 190.018 531.752L166.75 518.355C166.402 518.157 166.007 518.052 165.606 518.052C165.204 518.052 164.81 518.157 164.461 518.355L121.239 543.2V470.6L141.097 482.063ZM51.2204 612.815V537.662L71.122 549.093L94.4433 562.49L95.5796 560.53L94.4325 562.512L116.618 575.247V650.438L96.7268 638.996L95.5796 640.962L96.7268 638.996L73.4054 625.599L51.2204 612.815ZM27.8936 521.62L44.3755 512.149L50.0787 508.874L73.4 495.466L96.7268 482.058L113.771 472.259L116.628 470.616V543.184L73.4054 518.339C73.057 518.141 72.6624 518.036 72.261 518.036C71.8595 518.036 71.465 518.141 71.1166 518.339L47.7952 531.758C47.5555 531.897 47.3444 532.08 47.173 532.297C46.9702 532.536 46.8192 532.815 46.7293 533.115C46.6798 533.309 46.6543 533.508 46.6535 533.708V612.815L27.8936 623.589V521.62ZM150.55 633.566L121.195 650.438V575.252L128.127 571.266L186.598 537.667V587.346V612.815L150.55 633.566ZM53.5092 533.724L72.2637 522.95L94.4487 535.712L117.77 549.109C118.117 549.31 118.511 549.416 118.912 549.416C119.313 549.416 119.707 549.31 120.054 549.109L143.375 535.712L165.56 522.95L184.309 533.724L164.413 545.155L141.097 558.558L118.912 571.336L96.8458 558.666C96.8025 558.639 96.77 558.601 96.7268 558.574L73.4054 545.155L53.5092 533.724ZM118.912 442.491L141.097 455.252L142.244 453.281L141.097 455.252L164.418 468.644L187.745 482.058L188.887 480.092L187.745 482.058L211.072 495.455L230.968 506.897L212.219 517.671L190.034 504.931L166.712 491.512L165.565 493.484L166.707 491.512L143.38 478.142L120.054 464.723C119.647 464.497 119.18 464.401 118.717 464.448C118.656 464.443 118.594 464.443 118.533 464.448C118.266 464.486 118.007 464.572 117.77 464.701L94.4379 478.142L75.5319 489.012L62.735 496.371L47.7898 504.958L25.6048 517.709L21.276 515.215L6.85572 506.908L118.912 442.491ZM95.585 694.6L96.7268 692.628L73.4054 679.231L50.0787 665.812L48.9369 667.762L50.0787 665.791L26.7519 652.399L4.56687 639.642V510.846L6.50941 511.966L23.3213 521.62V627.565C23.3214 627.964 23.4269 628.357 23.6273 628.703C23.8277 629.049 24.1159 629.336 24.4631 629.536L47.7898 642.934L71.1111 656.353L72.2583 654.381L71.1166 656.353L94.4379 669.75L116.623 682.512V704.059L96.7268 692.623L95.585 694.6ZM121.195 704.07V682.522L213.35 629.515C213.698 629.316 213.986 629.028 214.187 628.682C214.387 628.336 214.492 627.943 214.491 627.543V521.62L233.24 510.846V639.658L121.195 704.07Z" fill="#7D82AB"/>
</g>
<g clip-path="url(#clip1_27_454)">
<path d="M364.66 725.7C364.659 725.302 364.553 724.911 364.353 724.566C364.152 724.221 363.865 723.934 363.518 723.734L340.202 710.321L339.061 712.292L340.202 710.321L316.865 696.934L293.543 683.515L292.396 685.487L293.538 683.515L270.217 670.118L246.89 656.699C246.542 656.5 246.149 656.396 245.748 656.396C245.348 656.396 244.954 656.5 244.607 656.699L127.978 723.734C127.738 723.873 127.527 724.056 127.356 724.273C127.155 724.513 127.006 724.792 126.918 725.092C126.864 725.285 126.836 725.484 126.836 725.684V859.755C126.836 860.154 126.942 860.546 127.142 860.892C127.343 861.239 127.631 861.526 127.978 861.726L151.305 875.145L152.447 873.174L151.305 875.145L174.632 888.542L197.953 901.961L199.1 899.99L197.958 901.961L221.28 915.359L244.607 928.778C244.954 928.975 245.348 929.079 245.748 929.079C246.149 929.079 246.542 928.975 246.89 928.778C246.89 928.778 246.89 928.778 246.933 928.745L363.513 861.732C363.86 861.532 364.148 861.246 364.348 860.901C364.548 860.556 364.654 860.164 364.655 859.765V725.743C364.655 725.743 364.66 725.717 364.66 725.7ZM176.899 857.788L175.757 859.755L176.899 857.788L157.008 846.357L175.763 835.583L197.948 848.345L199.095 846.373L197.958 848.307L221.28 861.705L244.607 875.124C244.954 875.321 245.348 875.425 245.748 875.425C246.149 875.425 246.542 875.321 246.89 875.124L287.732 851.642L315.728 835.551L334.478 846.325L314.576 857.794L291.255 871.202L267.933 884.605L245.748 897.361L223.563 884.599L222.421 886.555L223.563 884.583L200.242 871.191L176.899 857.788ZM267.933 700.856L269.08 698.89L267.933 700.856L291.255 714.253L314.581 727.672L315.723 725.7L314.581 727.672L336.766 740.412V842.414L318.012 831.64V752.517C318.012 752.116 317.905 751.722 317.703 751.375C317.558 751.148 317.375 750.948 317.162 750.782C317.109 750.736 317.053 750.693 316.995 750.653C316.946 750.62 316.908 750.577 316.854 750.545L293.587 737.148C293.238 736.949 292.844 736.845 292.442 736.845C292.041 736.845 291.646 736.949 291.298 737.148L248.075 761.992V689.392L267.933 700.856ZM178.057 831.608V756.454L197.958 767.886L221.28 781.283L222.416 779.322L221.269 781.304L243.454 794.039V869.23L223.563 857.788L222.416 859.755L223.563 857.788L200.242 844.391L178.057 831.608ZM154.73 740.412L171.212 730.942L176.915 727.667L200.236 714.258L223.563 700.85L240.608 691.051L243.465 689.408V761.976L200.242 737.131C199.893 736.933 199.499 736.829 199.097 736.829C198.696 736.829 198.301 736.933 197.953 737.131L174.632 750.55C174.392 750.689 174.181 750.872 174.009 751.089C173.807 751.329 173.656 751.608 173.566 751.908C173.516 752.102 173.491 752.301 173.49 752.5V831.608L154.73 842.382V740.412ZM277.386 852.358L248.032 869.23V794.045L254.963 790.058L313.434 756.46V806.138V831.608L277.386 852.358ZM180.346 752.517L199.1 741.743L221.285 754.504L244.607 767.902C244.953 768.103 245.347 768.209 245.748 768.209C246.149 768.209 246.543 768.103 246.89 767.902L270.211 754.504L292.396 741.743L311.145 752.517L291.249 763.948L267.933 777.35L245.748 790.128L223.682 777.458C223.639 777.431 223.606 777.394 223.563 777.367L200.242 763.948L180.346 752.517ZM245.748 661.283L267.933 674.045L269.08 672.073L267.933 674.045L291.255 687.437L314.581 700.85L315.723 698.884L314.581 700.85L337.908 714.248L357.804 725.69L339.055 736.463L316.87 723.723L293.549 710.304L292.402 712.276L293.543 710.304L270.217 696.934L246.89 683.515C246.483 683.289 246.017 683.193 245.553 683.24C245.492 683.235 245.431 683.235 245.369 683.24C245.102 683.279 244.844 683.365 244.607 683.494L221.274 696.934L202.368 707.805L189.571 715.163L174.626 723.75L152.441 736.501L148.112 734.007L133.692 725.7L245.748 661.283ZM222.421 913.392L223.563 911.421L200.242 898.023L176.915 884.605L175.773 886.555L176.915 884.583L153.588 871.191L131.403 858.435V729.638L133.346 730.759L150.158 740.412V846.357C150.158 846.757 150.263 847.149 150.464 847.495C150.664 847.841 150.952 848.129 151.299 848.329L174.626 861.726L197.948 875.145L199.095 873.174L197.953 875.145L221.274 888.542L243.459 901.304V922.852L223.563 911.415L222.421 913.392ZM248.032 922.863V901.315L340.186 848.307C340.534 848.108 340.823 847.821 341.023 847.474C341.224 847.128 341.329 846.735 341.328 846.336V740.412L360.077 729.638V858.451L248.032 922.863Z" fill="#7D82AB"/>
</g>
<g clip-path="url(#clip2_27_454)">
<path d="M491.496 506.908C491.495 506.509 491.389 506.118 491.189 505.773C490.989 505.428 490.701 505.141 490.355 504.942L467.039 491.528L465.897 493.5L467.039 491.528L443.701 478.142L420.38 464.723L419.233 466.694L420.374 464.723L397.053 451.325L373.726 437.906C373.379 437.708 372.985 437.604 372.585 437.604C372.184 437.604 371.79 437.708 371.443 437.906L254.814 504.942C254.575 505.08 254.364 505.263 254.192 505.48C253.991 505.72 253.842 505.999 253.754 506.299C253.7 506.492 253.673 506.691 253.673 506.892V640.962C253.673 641.362 253.778 641.754 253.979 642.1C254.179 642.446 254.467 642.734 254.814 642.934L278.141 656.353L279.283 654.381L278.141 656.353L301.468 669.75L324.789 683.169L325.936 681.197L324.795 683.169L348.116 696.566L371.443 709.985C371.791 710.183 372.184 710.286 372.585 710.286C372.985 710.286 373.378 710.183 373.726 709.985C373.726 709.985 373.726 709.985 373.77 709.953L490.349 642.939C490.696 642.74 490.984 642.453 491.184 642.108C491.385 641.763 491.49 641.372 491.491 640.973V506.951C491.491 506.951 491.496 506.924 491.496 506.908ZM303.735 638.996L302.593 640.962L303.735 638.996L283.844 627.565L302.599 616.791L324.784 629.553L325.931 627.581L324.795 629.515L348.116 642.912L371.443 656.331C371.791 656.529 372.184 656.632 372.585 656.632C372.985 656.632 373.378 656.529 373.726 656.331L414.568 632.849L442.565 616.759L461.314 627.532L441.412 639.001L418.091 652.409L394.77 665.812L372.585 678.568L350.399 665.807L349.258 667.762L350.399 665.791L327.078 652.399L303.735 638.996ZM394.77 482.063L395.917 480.097L394.77 482.063L418.091 495.461L441.418 508.879L442.559 506.908L441.418 508.879L463.603 521.62V623.622L444.848 612.848V533.724C444.848 533.323 444.742 532.929 444.54 532.582C444.394 532.356 444.211 532.155 443.999 531.99C443.945 531.943 443.889 531.9 443.831 531.86C443.782 531.828 443.744 531.785 443.69 531.752L420.423 518.355C420.075 518.157 419.68 518.052 419.279 518.052C418.877 518.052 418.483 518.157 418.134 518.355L374.911 543.2V470.6L394.77 482.063ZM304.893 612.815V537.662L324.795 549.093L348.116 562.49L349.252 560.53L348.105 562.512L370.29 575.247V650.438L350.399 638.996L349.252 640.962L350.399 638.996L327.078 625.599L304.893 612.815ZM281.566 521.62L298.048 512.149L303.751 508.874L327.073 495.466L350.399 482.058L367.444 472.259L370.301 470.616V543.184L327.078 518.339C326.73 518.141 326.335 518.036 325.934 518.036C325.532 518.036 325.138 518.141 324.789 518.339L301.468 531.758C301.228 531.897 301.017 532.08 300.846 532.297C300.643 532.536 300.492 532.815 300.402 533.115C300.353 533.309 300.327 533.508 300.326 533.708V612.815L281.566 623.589V521.62ZM404.223 633.566L374.868 650.438V575.252L381.799 571.266L440.271 537.667V587.346V612.815L404.223 633.566ZM307.182 533.724L325.936 522.95L348.121 535.712L371.443 549.109C371.789 549.31 372.183 549.416 372.585 549.416C372.986 549.416 373.38 549.31 373.726 549.109L397.048 535.712L419.233 522.95L437.982 533.724L418.086 545.155L394.77 558.558L372.585 571.336L350.519 558.666C350.475 558.639 350.443 558.601 350.399 558.574L327.078 545.155L307.182 533.724ZM372.585 442.491L394.77 455.252L395.917 453.281L394.77 455.252L418.091 468.644L441.418 482.058L442.559 480.092L441.418 482.058L464.744 495.455L484.641 506.897L465.892 517.671L443.706 504.931L420.385 491.512L419.238 493.484L420.38 491.512L397.053 478.142L373.726 464.723C373.32 464.497 372.853 464.401 372.39 464.448C372.329 464.443 372.267 464.443 372.206 464.448C371.938 464.486 371.68 464.572 371.443 464.701L348.111 478.142L329.205 489.012L316.408 496.371L301.463 504.958L279.278 517.709L274.949 515.215L260.528 506.908L372.585 442.491ZM349.258 694.6L350.399 692.628L327.078 679.231L303.751 665.812L302.61 667.762L303.751 665.791L280.425 652.399L258.24 639.642V510.846L260.182 511.966L276.994 521.62V627.565C276.994 627.964 277.1 628.357 277.3 628.703C277.5 629.049 277.789 629.336 278.136 629.536L301.463 642.934L324.784 656.353L325.931 654.381L324.789 656.353L348.111 669.75L370.296 682.512V704.059L350.399 692.623L349.258 694.6ZM374.868 704.07V682.522L467.022 629.515C467.37 629.316 467.659 629.028 467.86 628.682C468.06 628.336 468.165 627.943 468.164 627.543V521.62L486.913 510.846V639.658L374.868 704.07Z" fill="#7D82AB"/>
</g>
<g clip-path="url(#clip3_27_454)">
<path d="M237.824 69.3224C237.823 68.9239 237.717 68.5326 237.516 68.1876C237.316 67.8426 237.028 67.5559 236.682 67.3562L213.366 53.9427L212.224 55.9143L213.366 53.9427L190.028 40.5561L166.707 27.1372L165.56 29.1088L166.702 27.1372L143.38 13.7399L120.054 0.320976C119.706 0.122501 119.312 0.0180664 118.912 0.0180664C118.511 0.0180664 118.118 0.122501 117.77 0.320976L1.14173 67.3562C0.90201 67.495 0.690873 67.6778 0.519466 67.8949C0.318381 68.1349 0.169179 68.4137 0.081178 68.7137C0.0273283 68.9067 1.11236e-05 69.106 0 69.3063V203.377C3.75757e-05 203.776 0.105536 204.169 0.30592 204.515C0.506304 204.861 0.794542 205.148 1.14173 205.348L24.4685 218.767L25.6102 216.796L24.4685 218.767L47.7952 232.165L71.1166 245.583L72.2637 243.612L71.122 245.583L94.4433 258.981L117.77 272.4C118.118 272.597 118.511 272.701 118.912 272.701C119.312 272.701 119.706 272.597 120.054 272.4C120.054 272.4 120.054 272.4 120.097 272.367L236.676 205.354C237.023 205.154 237.311 204.868 237.512 204.523C237.712 204.178 237.818 203.786 237.818 203.387V69.3655C237.818 69.3655 237.824 69.3386 237.824 69.3224ZM50.0624 201.41L48.9207 203.377L50.0624 201.41L30.1717 189.979L48.9261 179.205L71.1111 191.967L72.2583 189.995L71.122 191.929L94.4433 205.327L117.77 218.746C118.118 218.943 118.511 219.047 118.912 219.047C119.312 219.047 119.706 218.943 120.054 218.746L160.896 195.264L188.892 179.173L207.641 189.947L187.74 201.416L164.418 214.824L141.097 228.227L118.912 240.983L96.7268 228.221L95.585 230.177L96.7268 228.205L73.4054 214.813L50.0624 201.41ZM141.097 44.4778L142.244 42.5116L141.097 44.4778L164.418 57.8752L187.745 71.294L188.887 69.3224L187.745 71.294L209.93 84.0342V186.036L191.175 175.262V96.1387C191.175 95.7376 191.069 95.3438 190.867 94.9966C190.721 94.7703 190.538 94.57 190.326 94.4041C190.272 94.358 190.216 94.3148 190.158 94.2748C190.11 94.2425 190.072 94.1994 190.018 94.167L166.75 80.7697C166.402 80.5713 166.007 80.4669 165.606 80.4669C165.204 80.4669 164.81 80.5713 164.461 80.7697L121.239 105.614V33.0144L141.097 44.4778ZM51.2204 175.23V100.077L71.122 111.508L94.4433 124.905L95.5796 122.944L94.4325 124.927L116.618 137.661V212.852L96.7268 201.41L95.5796 203.377L96.7268 201.41L73.4054 188.013L51.2204 175.23ZM27.8936 84.0342L44.3755 74.5639L50.0787 71.2887L73.4 57.8805L96.7268 44.4724L113.771 34.6736L116.628 33.0305V105.598L73.4054 80.7535C73.057 80.5551 72.6624 80.4507 72.261 80.4507C71.8595 80.4507 71.465 80.5551 71.1166 80.7535L47.7952 94.1724C47.5555 94.3113 47.3444 94.4941 47.173 94.7111C46.9702 94.9509 46.8192 95.2296 46.7293 95.5299C46.6798 95.7236 46.6543 95.9226 46.6535 96.1225V175.23L27.8936 186.004V84.0342ZM150.55 195.98L121.195 212.852V137.667L128.127 133.68L186.598 100.082V149.76V175.23L150.55 195.98ZM53.5092 96.1387L72.2637 85.3648L94.4487 98.1264L117.77 111.524C118.117 111.725 118.511 111.831 118.912 111.831C119.313 111.831 119.707 111.725 120.054 111.524L143.375 98.1264L165.56 85.3648L184.309 96.1387L164.413 107.57L141.097 120.973L118.912 133.75L96.8458 121.08C96.8025 121.053 96.77 121.016 96.7268 120.989L73.4054 107.57L53.5092 96.1387ZM118.912 4.90528L141.097 17.667L142.244 15.6953L141.097 17.667L164.418 31.0589L187.745 44.4724L188.887 42.5062L187.745 44.4724L211.072 57.8698L230.968 69.3117L212.219 80.0856L190.034 67.3454L166.712 53.9265L165.565 55.8981L166.707 53.9265L143.38 40.5561L120.054 27.1372C119.647 26.9112 119.18 26.8152 118.717 26.8625C118.656 26.8573 118.594 26.8573 118.533 26.8625C118.266 26.9009 118.007 26.9867 117.77 27.1157L94.4379 40.5561L75.5319 51.427L62.735 58.7855L47.7898 67.3723L25.6048 80.1233L21.276 77.6291L6.85572 69.3224L118.912 4.90528ZM95.585 257.015L96.7268 255.043L73.4054 241.646L50.0787 228.227L48.9369 230.177L50.0787 228.205L26.7519 214.813L4.56687 202.057V73.2603L6.50941 74.3808L23.3213 84.0342V189.979C23.3214 190.379 23.4269 190.771 23.6273 191.117C23.8277 191.463 24.1159 191.751 24.4631 191.951L47.7898 205.348L71.1111 218.767L72.2583 216.796L71.1166 218.767L94.4379 232.165L116.623 244.926V266.474L96.7268 255.038L95.585 257.015ZM121.195 266.485V244.937L213.35 191.929C213.698 191.73 213.986 191.443 214.187 191.096C214.387 190.75 214.492 190.357 214.491 189.958V84.0342L233.24 73.2603V202.073L121.195 266.485Z" fill="#7D82AB"/>
</g>
<g clip-path="url(#clip4_27_454)">
<path d="M364.66 288.115C364.659 287.717 364.553 287.325 364.353 286.98C364.152 286.635 363.865 286.349 363.518 286.149L340.202 272.735L339.061 274.707L340.202 272.735L316.865 259.349L293.543 245.93L292.396 247.902L293.538 245.93L270.217 232.533L246.89 219.114C246.542 218.915 246.149 218.811 245.748 218.811C245.348 218.811 244.954 218.915 244.607 219.114L127.978 286.149C127.738 286.288 127.527 286.471 127.356 286.688C127.155 286.928 127.006 287.206 126.918 287.506C126.864 287.699 126.836 287.899 126.836 288.099V422.169C126.836 422.569 126.942 422.961 127.142 423.307C127.343 423.653 127.631 423.941 127.978 424.141L151.305 437.56L152.447 435.588L151.305 437.56L174.632 450.957L197.953 464.376L199.1 462.405L197.958 464.376L221.28 477.773L244.607 491.192C244.954 491.39 245.348 491.494 245.748 491.494C246.149 491.494 246.542 491.39 246.89 491.192C246.89 491.192 246.89 491.192 246.933 491.16L363.513 424.146C363.86 423.947 364.148 423.661 364.348 423.315C364.548 422.97 364.654 422.579 364.655 422.18V288.158C364.655 288.158 364.66 288.131 364.66 288.115ZM176.899 420.203L175.757 422.169L176.899 420.203L157.008 408.772L175.763 397.998L197.948 410.76L199.095 408.788L197.958 410.722L221.28 424.119L244.607 437.538C244.954 437.736 245.348 437.84 245.748 437.84C246.149 437.84 246.542 437.736 246.89 437.538L287.732 414.057L315.728 397.966L334.478 408.74L314.576 420.209L291.255 433.617L267.933 447.019L245.748 459.776L223.563 447.014L222.421 448.969L223.563 446.998L200.242 433.606L176.899 420.203ZM267.933 263.271L269.08 261.304L267.933 263.271L291.255 276.668L314.581 290.087L315.723 288.115L314.581 290.087L336.766 302.827V404.829L318.012 394.055V314.931C318.012 314.53 317.905 314.136 317.703 313.789C317.558 313.563 317.375 313.363 317.162 313.197C317.109 313.151 317.053 313.108 316.995 313.068C316.946 313.035 316.908 312.992 316.854 312.96L293.587 299.562C293.238 299.364 292.844 299.26 292.442 299.26C292.041 299.26 291.646 299.364 291.298 299.562L248.075 324.407V251.807L267.933 263.271ZM178.057 394.023V318.869L197.958 330.3L221.28 343.698L222.416 341.737L221.269 343.719L243.454 356.454V431.645L223.563 420.203L222.416 422.169L223.563 420.203L200.242 406.806L178.057 394.023ZM154.73 302.827L171.212 293.357L176.915 290.081L200.236 276.673L223.563 263.265L240.608 253.466L243.465 251.823V324.391L200.242 299.546C199.893 299.348 199.499 299.243 199.097 299.243C198.696 299.243 198.301 299.348 197.953 299.546L174.632 312.965C174.392 313.104 174.181 313.287 174.009 313.504C173.807 313.744 173.656 314.022 173.566 314.323C173.516 314.516 173.491 314.715 173.49 314.915V394.023L154.73 404.797V302.827ZM277.386 414.773L248.032 431.645V356.459L254.963 352.473L313.434 318.875V368.553V394.023L277.386 414.773ZM180.346 314.931L199.1 304.157L221.285 316.919L244.607 330.317C244.953 330.518 245.347 330.624 245.748 330.624C246.149 330.624 246.543 330.518 246.89 330.317L270.211 316.919L292.396 304.157L311.145 314.931L291.249 326.362L267.933 339.765L245.748 352.543L223.682 339.873C223.639 339.846 223.606 339.808 223.563 339.781L200.242 326.362L180.346 314.931ZM245.748 223.698L267.933 236.46L269.08 234.488L267.933 236.46L291.255 249.852L314.581 263.265L315.723 261.299L314.581 263.265L337.908 276.662L357.804 288.104L339.055 298.878L316.87 286.138L293.549 272.719L292.402 274.691L293.543 272.719L270.217 259.349L246.89 245.93C246.483 245.704 246.017 245.608 245.553 245.655C245.492 245.65 245.431 245.65 245.369 245.655C245.102 245.694 244.844 245.779 244.607 245.908L221.274 259.349L202.368 270.22L189.571 277.578L174.626 286.165L152.441 298.916L148.112 296.422L133.692 288.115L245.748 223.698ZM222.421 475.807L223.563 473.836L200.242 460.438L176.915 447.019L175.773 448.969L176.915 446.998L153.588 433.606L131.403 420.85V292.053L133.346 293.174L150.158 302.827V408.772C150.158 409.172 150.263 409.564 150.464 409.91C150.664 410.256 150.952 410.544 151.299 410.744L174.626 424.141L197.948 437.56L199.095 435.588L197.953 437.56L221.274 450.957L243.459 463.719V485.267L223.563 473.83L222.421 475.807ZM248.032 485.278V463.73L340.186 410.722C340.534 410.523 340.823 410.235 341.023 409.889C341.224 409.543 341.329 409.15 341.328 408.751V302.827L360.077 292.053V420.866L248.032 485.278Z" fill="#7D82AB"/>
</g>
<g clip-path="url(#clip5_27_454)">
<path d="M491.496 69.3224C491.495 68.9239 491.389 68.5326 491.189 68.1876C490.989 67.8426 490.701 67.5559 490.355 67.3562L467.039 53.9427L465.897 55.9143L467.039 53.9427L443.701 40.5561L420.38 27.1372L419.233 29.1088L420.374 27.1372L397.053 13.7399L373.726 0.320976C373.379 0.122501 372.985 0.0180664 372.585 0.0180664C372.184 0.0180664 371.79 0.122501 371.443 0.320976L254.814 67.3562C254.575 67.495 254.364 67.6778 254.192 67.8949C253.991 68.1349 253.842 68.4137 253.754 68.7137C253.7 68.9067 253.673 69.106 253.673 69.3063V203.377C253.673 203.776 253.778 204.169 253.979 204.515C254.179 204.861 254.467 205.148 254.814 205.348L278.141 218.767L279.283 216.796L278.141 218.767L301.468 232.165L324.789 245.583L325.936 243.612L324.795 245.583L348.116 258.981L371.443 272.4C371.791 272.597 372.184 272.701 372.585 272.701C372.985 272.701 373.378 272.597 373.726 272.4C373.726 272.4 373.726 272.4 373.77 272.367L490.349 205.354C490.696 205.154 490.984 204.868 491.184 204.523C491.385 204.178 491.49 203.786 491.491 203.387V69.3655C491.491 69.3655 491.496 69.3386 491.496 69.3224ZM303.735 201.41L302.593 203.377L303.735 201.41L283.844 189.979L302.599 179.205L324.784 191.967L325.931 189.995L324.795 191.929L348.116 205.327L371.443 218.746C371.791 218.943 372.184 219.047 372.585 219.047C372.985 219.047 373.378 218.943 373.726 218.746L414.568 195.264L442.565 179.173L461.314 189.947L441.412 201.416L418.091 214.824L394.77 228.227L372.585 240.983L350.399 228.221L349.258 230.177L350.399 228.205L327.078 214.813L303.735 201.41ZM394.77 44.4778L395.917 42.5116L394.77 44.4778L418.091 57.8752L441.418 71.294L442.559 69.3224L441.418 71.294L463.603 84.0342V186.036L444.848 175.262V96.1387C444.848 95.7376 444.742 95.3438 444.54 94.9966C444.394 94.7703 444.211 94.57 443.999 94.4041C443.945 94.358 443.889 94.3148 443.831 94.2748C443.782 94.2425 443.744 94.1994 443.69 94.167L420.423 80.7697C420.075 80.5713 419.68 80.4669 419.279 80.4669C418.877 80.4669 418.483 80.5713 418.134 80.7697L374.911 105.614V33.0144L394.77 44.4778ZM304.893 175.23V100.077L324.795 111.508L348.116 124.905L349.252 122.944L348.105 124.927L370.29 137.661V212.852L350.399 201.41L349.252 203.377L350.399 201.41L327.078 188.013L304.893 175.23ZM281.566 84.0342L298.048 74.5639L303.751 71.2887L327.073 57.8805L350.399 44.4724L367.444 34.6736L370.301 33.0305V105.598L327.078 80.7535C326.73 80.5551 326.335 80.4507 325.934 80.4507C325.532 80.4507 325.138 80.5551 324.789 80.7535L301.468 94.1724C301.228 94.3113 301.017 94.4941 300.846 94.7111C300.643 94.9509 300.492 95.2296 300.402 95.5299C300.353 95.7236 300.327 95.9226 300.326 96.1225V175.23L281.566 186.004V84.0342ZM404.223 195.98L374.868 212.852V137.667L381.799 133.68L440.271 100.082V149.76V175.23L404.223 195.98ZM307.182 96.1387L325.936 85.3648L348.121 98.1264L371.443 111.524C371.789 111.725 372.183 111.831 372.585 111.831C372.986 111.831 373.38 111.725 373.726 111.524L397.048 98.1264L419.233 85.3648L437.982 96.1387L418.086 107.57L394.77 120.973L372.585 133.75L350.519 121.08C350.475 121.053 350.443 121.016 350.399 120.989L327.078 107.57L307.182 96.1387ZM372.585 4.90528L394.77 17.667L395.917 15.6953L394.77 17.667L418.091 31.0589L441.418 44.4724L442.559 42.5062L441.418 44.4724L464.744 57.8698L484.641 69.3117L465.892 80.0856L443.706 67.3454L420.385 53.9265L419.238 55.8981L420.38 53.9265L397.053 40.5561L373.726 27.1372C373.32 26.9112 372.853 26.8152 372.39 26.8625C372.329 26.8573 372.267 26.8573 372.206 26.8625C371.938 26.9009 371.68 26.9867 371.443 27.1157L348.111 40.5561L329.205 51.427L316.408 58.7855L301.463 67.3723L279.278 80.1233L274.949 77.6291L260.528 69.3224L372.585 4.90528ZM349.258 257.015L350.399 255.043L327.078 241.646L303.751 228.227L302.61 230.177L303.751 228.205L280.425 214.813L258.24 202.057V73.2603L260.182 74.3808L276.994 84.0342V189.979C276.994 190.379 277.1 190.771 277.3 191.117C277.5 191.463 277.789 191.751 278.136 191.951L301.463 205.348L324.784 218.767L325.931 216.796L324.789 218.767L348.111 232.165L370.296 244.926V266.474L350.399 255.038L349.258 257.015ZM374.868 266.485V244.937L467.022 191.929C467.37 191.73 467.659 191.443 467.86 191.096C468.06 190.75 468.165 190.357 468.164 189.958V84.0342L486.913 73.2603V202.073L374.868 266.485Z" fill="#7D82AB"/>
</g>
<g clip-path="url(#clip6_27_454)">
<path d="M618.333 725.7C618.332 725.302 618.226 724.911 618.025 724.566C617.825 724.221 617.537 723.934 617.191 723.734L593.875 710.321L592.733 712.292L593.875 710.321L570.537 696.934L547.216 683.515L546.069 685.487L547.211 683.515L523.889 670.118L500.563 656.699C500.215 656.5 499.821 656.396 499.421 656.396C499.02 656.396 498.627 656.5 498.279 656.699L381.651 723.734C381.411 723.873 381.2 724.056 381.028 724.273C380.827 724.513 380.678 724.792 380.59 725.092C380.536 725.285 380.509 725.484 380.509 725.684V859.755C380.509 860.154 380.615 860.546 380.815 860.892C381.015 861.239 381.304 861.526 381.651 861.726L404.978 875.145L406.119 873.174L404.978 875.145L428.304 888.542L451.626 901.961L452.773 899.99L451.631 901.961L474.952 915.359L498.279 928.778C498.627 928.975 499.02 929.079 499.421 929.079C499.821 929.079 500.215 928.975 500.563 928.778C500.563 928.778 500.563 928.778 500.606 928.745L617.186 861.732C617.532 861.532 617.82 861.246 618.021 860.901C618.221 860.556 618.327 860.164 618.327 859.765V725.743C618.327 725.743 618.333 725.717 618.333 725.7ZM430.571 857.788L429.43 859.755L430.571 857.788L410.681 846.357L429.435 835.583L451.62 848.345L452.767 846.373L451.631 848.307L474.952 861.705L498.279 875.124C498.627 875.321 499.02 875.425 499.421 875.425C499.821 875.425 500.215 875.321 500.563 875.124L541.405 851.642L569.401 835.551L588.15 846.325L568.249 857.794L544.927 871.202L521.606 884.605L499.421 897.361L477.236 884.599L476.094 886.555L477.236 884.583L453.914 871.191L430.571 857.788ZM521.606 700.856L522.753 698.89L521.606 700.856L544.927 714.253L568.254 727.672L569.396 725.7L568.254 727.672L590.439 740.412V842.414L571.685 831.64V752.517C571.684 752.116 571.578 751.722 571.376 751.375C571.23 751.148 571.047 750.948 570.835 750.782C570.781 750.736 570.725 750.693 570.667 750.653C570.619 750.62 570.581 750.577 570.527 750.545L547.259 737.148C546.911 736.949 546.516 736.845 546.115 736.845C545.713 736.845 545.319 736.949 544.97 737.148L501.748 761.992V689.392L521.606 700.856ZM431.729 831.608V756.454L451.631 767.886L474.952 781.283L476.089 779.322L474.942 781.304L497.127 794.039V869.23L477.236 857.788L476.089 859.755L477.236 857.788L453.914 844.391L431.729 831.608ZM408.403 740.412L424.885 730.942L430.588 727.667L453.909 714.258L477.236 700.85L494.28 691.051L497.137 689.408V761.976L453.914 737.131C453.566 736.933 453.171 736.829 452.77 736.829C452.369 736.829 451.974 736.933 451.626 737.131L428.304 750.55C428.065 750.689 427.853 750.872 427.682 751.089C427.479 751.329 427.328 751.608 427.238 751.908C427.189 752.102 427.163 752.301 427.163 752.5V831.608L408.403 842.382V740.412ZM531.059 852.358L501.704 869.23V794.045L508.636 790.058L567.107 756.46V806.138V831.608L531.059 852.358ZM434.018 752.517L452.773 741.743L474.958 754.504L498.279 767.902C498.626 768.103 499.02 768.209 499.421 768.209C499.822 768.209 500.216 768.103 500.563 767.902L523.884 754.504L546.069 741.743L564.818 752.517L544.922 763.948L521.606 777.35L499.421 790.128L477.355 777.458C477.312 777.431 477.279 777.394 477.236 777.367L453.914 763.948L434.018 752.517ZM499.421 661.283L521.606 674.045L522.753 672.073L521.606 674.045L544.927 687.437L568.254 700.85L569.396 698.884L568.254 700.85L591.581 714.248L611.477 725.69L592.728 736.463L570.543 723.723L547.221 710.304L546.074 712.276L547.216 710.304L523.889 696.934L500.563 683.515C500.156 683.289 499.689 683.193 499.226 683.24C499.165 683.235 499.103 683.235 499.042 683.24C498.775 683.279 498.516 683.365 498.279 683.494L474.947 696.934L456.041 707.805L443.244 715.163L428.299 723.75L406.114 736.501L401.785 734.007L387.365 725.7L499.421 661.283ZM476.094 913.392L477.236 911.421L453.914 898.023L430.588 884.605L429.446 886.555L430.588 884.583L407.261 871.191L385.076 858.435V729.638L387.018 730.759L403.83 740.412V846.357C403.83 846.757 403.936 847.149 404.136 847.495C404.337 847.841 404.625 848.129 404.972 848.329L428.299 861.726L451.62 875.145L452.767 873.174L451.626 875.145L474.947 888.542L497.132 901.304V922.852L477.236 911.415L476.094 913.392ZM501.704 922.863V901.315L593.859 848.307C594.207 848.108 594.495 847.821 594.696 847.474C594.896 847.128 595.002 846.735 595 846.336V740.412L613.749 729.638V858.451L501.704 922.863Z" fill="#7D82AB"/>
</g>
<g clip-path="url(#clip7_27_454)">
<path d="M745.169 944.493C745.168 944.095 745.062 943.704 744.862 943.359C744.661 943.013 744.374 942.727 744.027 942.527L720.711 929.114L719.57 931.085L720.711 929.114L697.374 915.727L674.052 902.308L672.905 904.28L674.047 902.308L650.726 888.911L627.399 875.492C627.051 875.293 626.658 875.189 626.257 875.189C625.857 875.189 625.463 875.293 625.116 875.492L508.487 942.527C508.247 942.666 508.036 942.849 507.865 943.066C507.664 943.306 507.515 943.585 507.427 943.885C507.373 944.078 507.345 944.277 507.345 944.477V1078.55C507.345 1078.95 507.451 1079.34 507.651 1079.69C507.852 1080.03 508.14 1080.32 508.487 1080.52L531.814 1093.94L532.956 1091.97L531.814 1093.94L555.141 1107.34L578.462 1120.75L579.609 1118.78L578.467 1120.75L601.789 1134.15L625.116 1147.57C625.463 1147.77 625.857 1147.87 626.257 1147.87C626.658 1147.87 627.051 1147.77 627.399 1147.57C627.399 1147.57 627.399 1147.57 627.442 1147.54L744.022 1080.52C744.369 1080.33 744.657 1080.04 744.857 1079.69C745.057 1079.35 745.163 1078.96 745.164 1078.56V944.536C745.164 944.536 745.169 944.509 745.169 944.493ZM557.408 1076.58L556.266 1078.55L557.408 1076.58L537.517 1065.15L556.272 1054.38L578.457 1067.14L579.604 1065.17L578.467 1067.1L601.789 1080.5L625.116 1093.92C625.463 1094.11 625.857 1094.22 626.257 1094.22C626.658 1094.22 627.051 1094.11 627.399 1093.92L668.241 1070.43L696.238 1054.34L714.987 1065.12L695.085 1076.59L671.764 1089.99L648.442 1103.4L626.257 1116.15L604.072 1103.39L602.931 1105.35L604.072 1103.38L580.751 1089.98L557.408 1076.58ZM648.442 919.649L649.589 917.682L648.442 919.649L671.764 933.046L695.09 946.465L696.232 944.493L695.09 946.465L717.275 959.205V1061.21L698.521 1050.43V971.31C698.521 970.909 698.414 970.515 698.213 970.168C698.067 969.941 697.884 969.741 697.671 969.575C697.618 969.529 697.562 969.486 697.504 969.446C697.455 969.413 697.417 969.37 697.363 969.338L674.096 955.941C673.747 955.742 673.353 955.638 672.951 955.638C672.55 955.638 672.155 955.742 671.807 955.941L628.584 980.785V908.185L648.442 919.649ZM558.566 1050.4V975.247L578.467 986.679L601.789 1000.08L602.925 998.115L601.778 1000.1L623.963 1012.83V1088.02L604.072 1076.58L602.925 1078.55L604.072 1076.58L580.751 1063.18L558.566 1050.4ZM535.239 959.205L551.721 949.735L557.424 946.46L580.745 933.051L604.072 919.643L621.117 909.844L623.974 908.201V980.769L580.751 955.924C580.402 955.726 580.008 955.622 579.606 955.622C579.205 955.622 578.811 955.726 578.462 955.924L555.141 969.343C554.901 969.482 554.69 969.665 554.518 969.882C554.316 970.122 554.165 970.4 554.075 970.701C554.025 970.895 554 971.094 553.999 971.293V1050.4L535.239 1061.17V959.205ZM657.895 1071.15L628.541 1088.02V1012.84L635.472 1008.85L693.943 975.253V1024.93V1050.4L657.895 1071.15ZM560.855 971.31L579.609 960.536L601.794 973.297L625.116 986.695C625.462 986.896 625.856 987.002 626.257 987.002C626.658 987.002 627.052 986.896 627.399 986.695L650.72 973.297L672.905 960.536L691.654 971.31L671.758 982.741L648.442 996.143L626.257 1008.92L604.191 996.251C604.148 996.224 604.116 996.187 604.072 996.16L580.751 982.741L560.855 971.31ZM626.257 880.076L648.442 892.838L649.589 890.866L648.442 892.838L671.764 906.23L695.09 919.643L696.232 917.677L695.09 919.643L718.417 933.041L738.313 944.483L719.564 955.256L697.379 942.516L674.058 929.097L672.911 931.069L674.052 929.097L650.726 915.727L627.399 902.308C626.992 902.082 626.526 901.986 626.062 902.033C626.001 902.028 625.94 902.028 625.878 902.033C625.611 902.072 625.353 902.158 625.116 902.287L601.783 915.727L582.877 926.598L570.08 933.956L555.135 942.543L532.95 955.294L528.621 952.8L514.201 944.493L626.257 880.076ZM602.931 1132.19L604.072 1130.21L580.751 1116.82L557.424 1103.4L556.282 1105.35L557.424 1103.38L534.097 1089.98L511.912 1077.23V948.431L513.855 949.552L530.667 959.205V1065.15C530.667 1065.55 530.772 1065.94 530.973 1066.29C531.173 1066.63 531.461 1066.92 531.809 1067.12L555.135 1080.52L578.457 1093.94L579.604 1091.97L578.462 1093.94L601.783 1107.34L623.968 1120.1V1141.64L604.072 1130.21L602.931 1132.19ZM628.541 1141.66V1120.11L720.695 1067.1C721.043 1066.9 721.332 1066.61 721.532 1066.27C721.733 1065.92 721.838 1065.53 721.837 1065.13V959.205L740.586 948.431V1077.24L628.541 1141.66Z" fill="#7D82AB"/>
</g>
<g clip-path="url(#clip8_27_454)">
<path d="M872.005 725.7C872.004 725.302 871.899 724.911 871.698 724.566C871.498 724.221 871.21 723.934 870.864 723.734L847.548 710.321L846.406 712.292L847.548 710.321L824.21 696.934L800.889 683.515L799.742 685.487L800.883 683.515L777.562 670.118L754.235 656.699C753.888 656.5 753.494 656.396 753.094 656.396C752.693 656.396 752.299 656.5 751.952 656.699L635.324 723.734C635.084 723.873 634.873 724.056 634.701 724.273C634.5 724.513 634.351 724.792 634.263 725.092C634.209 725.285 634.182 725.484 634.182 725.684V859.755C634.182 860.154 634.287 860.546 634.488 860.892C634.688 861.239 634.976 861.526 635.324 861.726L658.65 875.145L659.792 873.174L658.65 875.145L681.977 888.542L705.298 901.961L706.446 899.99L705.304 901.961L728.625 915.359L751.952 928.778C752.3 928.975 752.693 929.079 753.094 929.079C753.494 929.079 753.888 928.975 754.235 928.778C754.235 928.778 754.235 928.778 754.279 928.745L870.858 861.732C871.205 861.532 871.493 861.246 871.694 860.901C871.894 860.556 872 860.164 872 859.765V725.743C872 725.743 872.005 725.717 872.005 725.7ZM684.244 857.788L683.103 859.755L684.244 857.788L664.354 846.357L683.108 835.583L705.293 848.345L706.44 846.373L705.304 848.307L728.625 861.705L751.952 875.124C752.3 875.321 752.693 875.425 753.094 875.425C753.494 875.425 753.888 875.321 754.235 875.124L795.078 851.642L823.074 835.551L841.823 846.325L821.921 857.794L798.6 871.202L775.279 884.605L753.094 897.361L730.909 884.599L729.767 886.555L730.909 884.583L707.587 871.191L684.244 857.788ZM775.279 700.856L776.426 698.89L775.279 700.856L798.6 714.253L821.927 727.672L823.069 725.7L821.927 727.672L844.112 740.412V842.414L825.357 831.64V752.517C825.357 752.116 825.251 751.722 825.049 751.375C824.903 751.148 824.72 750.948 824.508 750.782C824.454 750.736 824.398 750.693 824.34 750.653C824.291 750.62 824.254 750.577 824.199 750.545L800.932 737.148C800.584 736.949 800.189 736.845 799.788 736.845C799.386 736.845 798.992 736.949 798.643 737.148L755.42 761.992V689.392L775.279 700.856ZM685.402 831.608V756.454L705.304 767.886L728.625 781.283L729.762 779.322L728.614 781.304L750.799 794.039V869.23L730.909 857.788L729.762 859.755L730.909 857.788L707.587 844.391L685.402 831.608ZM662.076 740.412L678.557 730.942L684.261 727.667L707.582 714.258L730.909 700.85L747.953 691.051L750.81 689.408V761.976L707.587 737.131C707.239 736.933 706.844 736.829 706.443 736.829C706.041 736.829 705.647 736.933 705.298 737.131L681.977 750.55C681.737 750.689 681.526 750.872 681.355 751.089C681.152 751.329 681.001 751.608 680.911 751.908C680.862 752.102 680.836 752.301 680.835 752.5V831.608L662.076 842.382V740.412ZM784.732 852.358L755.377 869.23V794.045L762.309 790.058L820.78 756.46V806.138V831.608L784.732 852.358ZM687.691 752.517L706.446 741.743L728.631 754.504L751.952 767.902C752.299 768.103 752.693 768.209 753.094 768.209C753.495 768.209 753.889 768.103 754.235 767.902L777.557 754.504L799.742 741.743L818.491 752.517L798.595 763.948L775.279 777.35L753.094 790.128L731.028 777.458C730.984 777.431 730.952 777.394 730.909 777.367L707.587 763.948L687.691 752.517ZM753.094 661.283L775.279 674.045L776.426 672.073L775.279 674.045L798.6 687.437L821.927 700.85L823.069 698.884L821.927 700.85L845.254 714.248L865.15 725.69L846.401 736.463L824.216 723.723L800.894 710.304L799.747 712.276L800.889 710.304L777.562 696.934L754.235 683.515C753.829 683.289 753.362 683.193 752.899 683.24C752.838 683.235 752.776 683.235 752.715 683.24C752.447 683.279 752.189 683.365 751.952 683.494L728.62 696.934L709.714 707.805L696.917 715.163L681.972 723.75L659.787 736.501L655.458 734.007L641.038 725.7L753.094 661.283ZM729.767 913.392L730.909 911.421L707.587 898.023L684.261 884.605L683.119 886.555L684.261 884.583L660.934 871.191L638.749 858.435V729.638L640.691 730.759L657.503 740.412V846.357C657.503 846.757 657.609 847.149 657.809 847.495C658.01 847.841 658.298 848.129 658.645 848.329L681.972 861.726L705.293 875.145L706.44 873.174L705.298 875.145L728.62 888.542L750.805 901.304V922.852L730.909 911.415L729.767 913.392ZM755.377 922.863V901.315L847.532 848.307C847.88 848.108 848.168 847.821 848.369 847.474C848.569 847.128 848.674 846.735 848.673 846.336V740.412L867.422 729.638V858.451L755.377 922.863Z" fill="#7D82AB"/>
</g>
<g clip-path="url(#clip9_27_454)">
<path d="M618.333 288.115C618.332 287.717 618.226 287.325 618.025 286.98C617.825 286.635 617.537 286.349 617.191 286.149L593.875 272.735L592.733 274.707L593.875 272.735L570.537 259.349L547.216 245.93L546.069 247.902L547.211 245.93L523.889 232.533L500.563 219.114C500.215 218.915 499.821 218.811 499.421 218.811C499.02 218.811 498.627 218.915 498.279 219.114L381.651 286.149C381.411 286.288 381.2 286.471 381.028 286.688C380.827 286.928 380.678 287.206 380.59 287.506C380.536 287.699 380.509 287.899 380.509 288.099V422.169C380.509 422.569 380.615 422.961 380.815 423.307C381.015 423.653 381.304 423.941 381.651 424.141L404.978 437.56L406.119 435.588L404.978 437.56L428.304 450.957L451.626 464.376L452.773 462.405L451.631 464.376L474.952 477.773L498.279 491.192C498.627 491.39 499.02 491.494 499.421 491.494C499.821 491.494 500.215 491.39 500.563 491.192C500.563 491.192 500.563 491.192 500.606 491.16L617.186 424.146C617.532 423.947 617.82 423.661 618.021 423.315C618.221 422.97 618.327 422.579 618.327 422.18V288.158C618.327 288.158 618.333 288.131 618.333 288.115ZM430.571 420.203L429.43 422.169L430.571 420.203L410.681 408.772L429.435 397.998L451.62 410.76L452.767 408.788L451.631 410.722L474.952 424.119L498.279 437.538C498.627 437.736 499.02 437.84 499.421 437.84C499.821 437.84 500.215 437.736 500.563 437.538L541.405 414.057L569.401 397.966L588.15 408.74L568.249 420.209L544.927 433.617L521.606 447.019L499.421 459.776L477.236 447.014L476.094 448.969L477.236 446.998L453.914 433.606L430.571 420.203ZM521.606 263.271L522.753 261.304L521.606 263.271L544.927 276.668L568.254 290.087L569.396 288.115L568.254 290.087L590.439 302.827V404.829L571.685 394.055V314.931C571.684 314.53 571.578 314.136 571.376 313.789C571.23 313.563 571.047 313.363 570.835 313.197C570.781 313.151 570.725 313.108 570.667 313.068C570.619 313.035 570.581 312.992 570.527 312.96L547.259 299.562C546.911 299.364 546.516 299.26 546.115 299.26C545.713 299.26 545.319 299.364 544.97 299.562L501.748 324.407V251.807L521.606 263.271ZM431.729 394.023V318.869L451.631 330.3L474.952 343.698L476.089 341.737L474.942 343.719L497.127 356.454V431.645L477.236 420.203L476.089 422.169L477.236 420.203L453.914 406.806L431.729 394.023ZM408.403 302.827L424.885 293.357L430.588 290.081L453.909 276.673L477.236 263.265L494.28 253.466L497.137 251.823V324.391L453.914 299.546C453.566 299.348 453.171 299.243 452.77 299.243C452.369 299.243 451.974 299.348 451.626 299.546L428.304 312.965C428.065 313.104 427.853 313.287 427.682 313.504C427.479 313.744 427.328 314.022 427.238 314.323C427.189 314.516 427.163 314.715 427.163 314.915V394.023L408.403 404.797V302.827ZM531.059 414.773L501.704 431.645V356.459L508.636 352.473L567.107 318.875V368.553V394.023L531.059 414.773ZM434.018 314.931L452.773 304.157L474.958 316.919L498.279 330.317C498.626 330.518 499.02 330.624 499.421 330.624C499.822 330.624 500.216 330.518 500.563 330.317L523.884 316.919L546.069 304.157L564.818 314.931L544.922 326.362L521.606 339.765L499.421 352.543L477.355 339.873C477.312 339.846 477.279 339.808 477.236 339.781L453.914 326.362L434.018 314.931ZM499.421 223.698L521.606 236.46L522.753 234.488L521.606 236.46L544.927 249.852L568.254 263.265L569.396 261.299L568.254 263.265L591.581 276.662L611.477 288.104L592.728 298.878L570.543 286.138L547.221 272.719L546.074 274.691L547.216 272.719L523.889 259.349L500.563 245.93C500.156 245.704 499.689 245.608 499.226 245.655C499.165 245.65 499.103 245.65 499.042 245.655C498.775 245.694 498.516 245.779 498.279 245.908L474.947 259.349L456.041 270.22L443.244 277.578L428.299 286.165L406.114 298.916L401.785 296.422L387.365 288.115L499.421 223.698ZM476.094 475.807L477.236 473.836L453.914 460.438L430.588 447.019L429.446 448.969L430.588 446.998L407.261 433.606L385.076 420.85V292.053L387.018 293.174L403.83 302.827V408.772C403.83 409.172 403.936 409.564 404.136 409.91C404.337 410.256 404.625 410.544 404.972 410.744L428.299 424.141L451.62 437.56L452.767 435.588L451.626 437.56L474.947 450.957L497.132 463.719V485.267L477.236 473.83L476.094 475.807ZM501.704 485.278V463.73L593.859 410.722C594.207 410.523 594.495 410.235 594.696 409.889C594.896 409.543 595.002 409.15 595 408.751V302.827L613.749 292.053V420.866L501.704 485.278Z" fill="#7D82AB"/>
</g>
<g clip-path="url(#clip10_27_454)">
<path d="M745.169 506.908C745.168 506.509 745.062 506.118 744.862 505.773C744.661 505.428 744.374 505.141 744.027 504.942L720.711 491.528L719.57 493.5L720.711 491.528L697.374 478.142L674.052 464.723L672.905 466.694L674.047 464.723L650.726 451.325L627.399 437.906C627.051 437.708 626.658 437.604 626.257 437.604C625.857 437.604 625.463 437.708 625.116 437.906L508.487 504.942C508.247 505.08 508.036 505.263 507.865 505.48C507.664 505.72 507.515 505.999 507.427 506.299C507.373 506.492 507.345 506.691 507.345 506.892V640.962C507.345 641.362 507.451 641.754 507.651 642.1C507.852 642.446 508.14 642.734 508.487 642.934L531.814 656.353L532.956 654.381L531.814 656.353L555.141 669.75L578.462 683.169L579.609 681.197L578.467 683.169L601.789 696.566L625.116 709.985C625.463 710.183 625.857 710.286 626.257 710.286C626.658 710.286 627.051 710.183 627.399 709.985C627.399 709.985 627.399 709.985 627.442 709.953L744.022 642.939C744.369 642.74 744.657 642.453 744.857 642.108C745.057 641.763 745.163 641.372 745.164 640.973V506.951C745.164 506.951 745.169 506.924 745.169 506.908ZM557.408 638.996L556.266 640.962L557.408 638.996L537.517 627.565L556.272 616.791L578.457 629.553L579.604 627.581L578.467 629.515L601.789 642.912L625.116 656.331C625.463 656.529 625.857 656.632 626.257 656.632C626.658 656.632 627.051 656.529 627.399 656.331L668.241 632.849L696.238 616.759L714.987 627.532L695.085 639.001L671.764 652.409L648.442 665.812L626.257 678.568L604.072 665.807L602.931 667.762L604.072 665.791L580.751 652.399L557.408 638.996ZM648.442 482.063L649.589 480.097L648.442 482.063L671.764 495.461L695.09 508.879L696.232 506.908L695.09 508.879L717.275 521.62V623.622L698.521 612.848V533.724C698.521 533.323 698.414 532.929 698.213 532.582C698.067 532.356 697.884 532.155 697.671 531.99C697.618 531.943 697.562 531.9 697.504 531.86C697.455 531.828 697.417 531.785 697.363 531.752L674.096 518.355C673.747 518.157 673.353 518.052 672.951 518.052C672.55 518.052 672.155 518.157 671.807 518.355L628.584 543.2V470.6L648.442 482.063ZM558.566 612.815V537.662L578.467 549.093L601.789 562.49L602.925 560.53L601.778 562.512L623.963 575.247V650.438L604.072 638.996L602.925 640.962L604.072 638.996L580.751 625.599L558.566 612.815ZM535.239 521.62L551.721 512.149L557.424 508.874L580.745 495.466L604.072 482.058L621.117 472.259L623.974 470.616V543.184L580.751 518.339C580.402 518.141 580.008 518.036 579.606 518.036C579.205 518.036 578.811 518.141 578.462 518.339L555.141 531.758C554.901 531.897 554.69 532.08 554.518 532.297C554.316 532.536 554.165 532.815 554.075 533.115C554.025 533.309 554 533.508 553.999 533.708V612.815L535.239 623.589V521.62ZM657.895 633.566L628.541 650.438V575.252L635.472 571.266L693.943 537.667V587.346V612.815L657.895 633.566ZM560.855 533.724L579.609 522.95L601.794 535.712L625.116 549.109C625.462 549.31 625.856 549.416 626.257 549.416C626.658 549.416 627.052 549.31 627.399 549.109L650.72 535.712L672.905 522.95L691.654 533.724L671.758 545.155L648.442 558.558L626.257 571.336L604.191 558.666C604.148 558.639 604.116 558.601 604.072 558.574L580.751 545.155L560.855 533.724ZM626.257 442.491L648.442 455.252L649.589 453.281L648.442 455.252L671.764 468.644L695.09 482.058L696.232 480.092L695.09 482.058L718.417 495.455L738.313 506.897L719.564 517.671L697.379 504.931L674.058 491.512L672.911 493.484L674.052 491.512L650.726 478.142L627.399 464.723C626.992 464.497 626.526 464.401 626.062 464.448C626.001 464.443 625.94 464.443 625.878 464.448C625.611 464.486 625.353 464.572 625.116 464.701L601.783 478.142L582.877 489.012L570.08 496.371L555.135 504.958L532.95 517.709L528.621 515.215L514.201 506.908L626.257 442.491ZM602.931 694.6L604.072 692.628L580.751 679.231L557.424 665.812L556.282 667.762L557.424 665.791L534.097 652.399L511.912 639.642V510.846L513.855 511.966L530.667 521.62V627.565C530.667 627.964 530.772 628.357 530.973 628.703C531.173 629.049 531.461 629.336 531.809 629.536L555.135 642.934L578.457 656.353L579.604 654.381L578.462 656.353L601.783 669.75L623.968 682.512V704.059L604.072 692.623L602.931 694.6ZM628.541 704.07V682.522L720.695 629.515C721.043 629.316 721.332 629.028 721.532 628.682C721.733 628.336 721.838 627.943 721.837 627.543V521.62L740.586 510.846V639.658L628.541 704.07Z" fill="#7D82AB"/>
</g>
<g clip-path="url(#clip11_27_454)">
<path d="M872.005 288.115C872.004 287.717 871.899 287.325 871.698 286.98C871.498 286.635 871.21 286.349 870.864 286.149L847.548 272.735L846.406 274.707L847.548 272.735L824.21 259.349L800.889 245.93L799.742 247.902L800.883 245.93L777.562 232.533L754.235 219.114C753.888 218.915 753.494 218.811 753.094 218.811C752.693 218.811 752.299 218.915 751.952 219.114L635.324 286.149C635.084 286.288 634.873 286.471 634.701 286.688C634.5 286.928 634.351 287.206 634.263 287.506C634.209 287.699 634.182 287.899 634.182 288.099V422.169C634.182 422.569 634.287 422.961 634.488 423.307C634.688 423.653 634.976 423.941 635.324 424.141L658.65 437.56L659.792 435.588L658.65 437.56L681.977 450.957L705.298 464.376L706.446 462.405L705.304 464.376L728.625 477.773L751.952 491.192C752.3 491.39 752.693 491.494 753.094 491.494C753.494 491.494 753.888 491.39 754.235 491.192C754.235 491.192 754.235 491.192 754.279 491.16L870.858 424.146C871.205 423.947 871.493 423.661 871.694 423.315C871.894 422.97 872 422.579 872 422.18V288.158C872 288.158 872.005 288.131 872.005 288.115ZM684.244 420.203L683.103 422.169L684.244 420.203L664.354 408.772L683.108 397.998L705.293 410.76L706.44 408.788L705.304 410.722L728.625 424.119L751.952 437.538C752.3 437.736 752.693 437.84 753.094 437.84C753.494 437.84 753.888 437.736 754.235 437.538L795.078 414.057L823.074 397.966L841.823 408.74L821.921 420.209L798.6 433.617L775.279 447.019L753.094 459.776L730.909 447.014L729.767 448.969L730.909 446.998L707.587 433.606L684.244 420.203ZM775.279 263.271L776.426 261.304L775.279 263.271L798.6 276.668L821.927 290.087L823.069 288.115L821.927 290.087L844.112 302.827V404.829L825.357 394.055V314.931C825.357 314.53 825.251 314.136 825.049 313.789C824.903 313.563 824.72 313.363 824.508 313.197C824.454 313.151 824.398 313.108 824.34 313.068C824.291 313.035 824.254 312.992 824.199 312.96L800.932 299.562C800.584 299.364 800.189 299.26 799.788 299.26C799.386 299.26 798.992 299.364 798.643 299.562L755.42 324.407V251.807L775.279 263.271ZM685.402 394.023V318.869L705.304 330.3L728.625 343.698L729.762 341.737L728.614 343.719L750.799 356.454V431.645L730.909 420.203L729.762 422.169L730.909 420.203L707.587 406.806L685.402 394.023ZM662.076 302.827L678.557 293.357L684.261 290.081L707.582 276.673L730.909 263.265L747.953 253.466L750.81 251.823V324.391L707.587 299.546C707.239 299.348 706.844 299.243 706.443 299.243C706.041 299.243 705.647 299.348 705.298 299.546L681.977 312.965C681.737 313.104 681.526 313.287 681.355 313.504C681.152 313.744 681.001 314.022 680.911 314.323C680.862 314.516 680.836 314.715 680.835 314.915V394.023L662.076 404.797V302.827ZM784.732 414.773L755.377 431.645V356.459L762.309 352.473L820.78 318.875V368.553V394.023L784.732 414.773ZM687.691 314.931L706.446 304.157L728.631 316.919L751.952 330.317C752.299 330.518 752.693 330.624 753.094 330.624C753.495 330.624 753.889 330.518 754.235 330.317L777.557 316.919L799.742 304.157L818.491 314.931L798.595 326.362L775.279 339.765L753.094 352.543L731.028 339.873C730.984 339.846 730.952 339.808 730.909 339.781L707.587 326.362L687.691 314.931ZM753.094 223.698L775.279 236.46L776.426 234.488L775.279 236.46L798.6 249.852L821.927 263.265L823.069 261.299L821.927 263.265L845.254 276.662L865.15 288.104L846.401 298.878L824.216 286.138L800.894 272.719L799.747 274.691L800.889 272.719L777.562 259.349L754.235 245.93C753.829 245.704 753.362 245.608 752.899 245.655C752.838 245.65 752.776 245.65 752.715 245.655C752.447 245.694 752.189 245.779 751.952 245.908L728.62 259.349L709.714 270.22L696.917 277.578L681.972 286.165L659.787 298.916L655.458 296.422L641.038 288.115L753.094 223.698ZM729.767 475.807L730.909 473.836L707.587 460.438L684.261 447.019L683.119 448.969L684.261 446.998L660.934 433.606L638.749 420.85V292.053L640.691 293.174L657.503 302.827V408.772C657.503 409.172 657.609 409.564 657.809 409.91C658.01 410.256 658.298 410.544 658.645 410.744L681.972 424.141L705.293 437.56L706.44 435.588L705.298 437.56L728.62 450.957L750.805 463.719V485.267L730.909 473.83L729.767 475.807ZM755.377 485.278V463.73L847.532 410.722C847.88 410.523 848.168 410.235 848.369 409.889C848.569 409.543 848.674 409.15 848.673 408.751V302.827L867.422 292.053V420.866L755.377 485.278Z" fill="#FF9300"/>
</g>
</g>
<defs>
<clipPath id="clip0_27_454">
<rect width="237.818" height="272.698" fill="white" transform="translate(0 437.585)"/>
</clipPath>
<clipPath id="clip1_27_454">
<rect width="237.818" height="272.698" fill="white" transform="translate(126.836 656.378)"/>
</clipPath>
<clipPath id="clip2_27_454">
<rect width="237.818" height="272.698" fill="white" transform="translate(253.673 437.585)"/>
</clipPath>
<clipPath id="clip3_27_454">
<rect width="237.818" height="272.698" fill="white"/>
</clipPath>
<clipPath id="clip4_27_454">
<rect width="237.818" height="272.698" fill="white" transform="translate(126.836 218.793)"/>
</clipPath>
<clipPath id="clip5_27_454">
<rect width="237.818" height="272.698" fill="white" transform="translate(253.673)"/>
</clipPath>
<clipPath id="clip6_27_454">
<rect width="237.818" height="272.698" fill="white" transform="translate(380.509 656.378)"/>
</clipPath>
<clipPath id="clip7_27_454">
<rect width="237.818" height="272.698" fill="white" transform="translate(507.345 875.171)"/>
</clipPath>
<clipPath id="clip8_27_454">
<rect width="237.818" height="272.698" fill="white" transform="translate(634.182 656.378)"/>
</clipPath>
<clipPath id="clip9_27_454">
<rect width="237.818" height="272.698" fill="white" transform="translate(380.509 218.793)"/>
</clipPath>
<clipPath id="clip10_27_454">
<rect width="237.818" height="272.698" fill="white" transform="translate(507.345 437.585)"/>
</clipPath>
<clipPath id="clip11_27_454">
<rect width="237.818" height="272.698" fill="white" transform="translate(634.182 218.793)"/>
</clipPath>
</defs>
</svg>
